HIERARCHY
ROOT Hips
{
  OFFSET 328.922 92.5915 810.848
  CHANNELS 6 Xposition Yposition Zposition Zrotation Xrotation Yrotation
  JOINT Spine
  {
    OFFSET 3.17686e-05 8 0
    CHANNELS 6 Xposition Yposition Zposition Zrotation Xrotation Yrotation
    JOINT Spine1
    {
      OFFSET -4.67785e-05 8 2.52887e-05
      CHANNELS 6 Xposition Yposition Zposition Zrotation Xrotation Yrotation
      JOINT Spine2
      {
        OFFSET 5.9004e-05 8 -6.03473e-05
        CHANNELS 6 Xposition Yposition Zposition Zrotation Xrotation Yrotation
        JOINT Spine3
        {
          OFFSET 0 8 0
          CHANNELS 6 Xposition Yposition Zposition Zrotation Xrotation Yrotation
          JOINT Neck
          {
            OFFSET -0.0109235 17 0.0063839
            CHANNELS 6 Xposition Yposition Zposition Zrotation Xrotation Yrotation
            JOINT Head
            {
              OFFSET 0 10.8 0
              CHANNELS 6 Xposition Yposition Zposition Zrotation Xrotation Yrotation
              End Site
              {
                OFFSET 0 20.25 0
              }
            }
          }
          JOINT LeftShoulder
          {
            OFFSET 4.98908 17.0032 0.00629003
            CHANNELS 6 Xposition Yposition Zposition Zrotation Xrotation Yrotation
            JOINT LeftShoulder2
            {
              OFFSET 6.45 0 0
              CHANNELS 6 Xposition Yposition Zposition Zrotation Xrotation Yrotation
              JOINT LeftArm
              {
                OFFSET 6.45 -0.000387941 0.00133179
                CHANNELS 6 Xposition Yposition Zposition Zrotation Xrotation Yrotation
                JOINT LeftForeArm
                {
                  OFFSET -3.5985e-05 -32.4 -2.00003
                  CHANNELS 6 Xposition Yposition Zposition Zrotation Xrotation Yrotation
                  JOINT LeftHand
                  {
                    OFFSET 0 -25.65 2
                    CHANNELS 6 Xposition Yposition Zposition Zrotation Xrotation Yrotation
                    JOINT LeftHandThumb1
                    {
                      OFFSET -0.500035 -1.50006 2.65001
                      CHANNELS 6 Xposition Yposition Zposition Zrotation Xrotation Yrotation
                      JOINT LeftHandThumb2
                      {
                        OFFSET 1.37838e-05 -3.8 3.69998
                        CHANNELS 6 Xposition Yposition Zposition Zrotation Xrotation Yrotation
                        JOINT LeftHandThumb3
                        {
                          OFFSET 0 -3.00003 2.70003
                          CHANNELS 6 Xposition Yposition Zposition Zrotation Xrotation Yrotation
                          End Site
                          {
                            OFFSET 0 -2.29993 1.79996
                          }
                        }
                      }
                    }
                    JOINT LeftHandIndex
                    {
                      OFFSET -2.61561e-05 -1.90002 1.59998
                      CHANNELS 6 Xposition Yposition Zposition Zrotation Xrotation Yrotation
                      JOINT LeftHandIndex1
                      {
                        OFFSET 2.01178e-05 -8.3 1.90002
                        CHANNELS 6 Xposition Yposition Zposition Zrotation Xrotation Yrotation
                        JOINT LeftHandIndex2
                        {
                          OFFSET 0 -4.49999 0
                          CHANNELS 6 Xposition Yposition Zposition Zrotation Xrotation Yrotation
                          JOINT LeftHandIndex3
                          {
                            OFFSET -1.10031e-05 -3.40001 0
                            CHANNELS 6 Xposition Yposition Zposition Zrotation Xrotation Yrotation
                            End Site
                            {
                              OFFSET 0 -2.60001 1.42263e-05
                            }
                          }
                        }
                      }
                    }
                    JOINT LeftHandMiddle
                    {
                      OFFSET -0.250012 -2.20002 0.400004
                      CHANNELS 6 Xposition Yposition Zposition Zrotation Xrotation Yrotation
                      JOINT LeftHandMiddle1
                      {
                        OFFSET 0 -8.30002 0.999997
                        CHANNELS 6 Xposition Yposition Zposition Zrotation Xrotation Yrotation
                        JOINT LeftHandMiddle2
                        {
                          OFFSET 0 -4.64998 0
                          CHANNELS 6 Xposition Yposition Zposition Zrotation Xrotation Yrotation
                          JOINT LeftHandMiddle3
                          {
                            OFFSET -1.07784e-05 -3.3 1.01719e-05
                            CHANNELS 6 Xposition Yposition Zposition Zrotation Xrotation Yrotation
                            End Site
                            {
                              OFFSET 1.28127e-05 -2.69999 0
                            }
                          }
                        }
                      }
                    }
                    JOINT LeftHandRing
                    {
                      OFFSET -0.500009 -2.15 -0.8
                      CHANNELS 6 Xposition Yposition Zposition Zrotation Xrotation Yrotation
                      JOINT LeftHandRing1
                      {
                        OFFSET 0 -7.75002 -0.200021
                        CHANNELS 6 Xposition Yposition Zposition Zrotation Xrotation Yrotation
                        JOINT LeftHandRing2
                        {
                          OFFSET 1.3751e-05 -3.80001 4.74268e-05
                          CHANNELS 6 Xposition Yposition Zposition Zrotation Xrotation Yrotation
                          JOINT LeftHandRing3
                          {
                            OFFSET 1.86743e-05 -3.39998 0
                            CHANNELS 6 Xposition Yposition Zposition Zrotation Xrotation Yrotation
                            End Site
                            {
                              OFFSET 0 -2.60001 0
                            }
                          }
                        }
                      }
                    }
                    JOINT LeftHandPinky
                    {
                      OFFSET -0.750006 -1.75002 -1.84998
                      CHANNELS 6 Xposition Yposition Zposition Zrotation Xrotation Yrotation
                      JOINT LeftHandPinky1
                      {
                        OFFSET -1.28449e-05 -7.15001 -1.00001
                        CHANNELS 6 Xposition Yposition Zposition Zrotation Xrotation Yrotation
                        JOINT LeftHandPinky2
                        {
                          OFFSET 3.17245e-05 -2.99997 1.11036e-05
                          CHANNELS 6 Xposition Yposition Zposition Zrotation Xrotation Yrotation
                          JOINT LeftHandPinky3
                          {
                            OFFSET -3.76798e-05 -2.35005 -2.39053e-05
                            CHANNELS 6 Xposition Yposition Zposition Zrotation Xrotation Yrotation
                            End Site
                            {
                              OFFSET 0 -2.09998 1.96967e-05
                            }
                          }
                        }
                      }
                    }
                  }
                }
              }
            }
          }
          JOINT RightShoulder
          {
            OFFSET -5.01094 16.9968 0.0064521
            CHANNELS 6 Xposition Yposition Zposition Zrotation Xrotation Yrotation
            JOINT RightShoulder2
            {
              OFFSET -6.45 0 0
              CHANNELS 6 Xposition Yposition Zposition Zrotation Xrotation Yrotation
              JOINT RightArm
              {
                OFFSET -6.45 0.00412723 -0.00851411
                CHANNELS 6 Xposition Yposition Zposition Zrotation Xrotation Yrotation
                JOINT RightForeArm
                {
                  OFFSET 2.9307e-05 -32.4 -2.00001
                  CHANNELS 6 Xposition Yposition Zposition Zrotation Xrotation Yrotation
                  JOINT RightHand
                  {
                    OFFSET -3.28504e-05 -25.65 1.99995
                    CHANNELS 6 Xposition Yposition Zposition Zrotation Xrotation Yrotation
                    JOINT RightHandThumb1
                    {
                      OFFSET 0.499994 -1.50001 2.65005
                      CHANNELS 6 Xposition Yposition Zposition Zrotation Xrotation Yrotation
                      JOINT RightHandThumb2
                      {
                        OFFSET 0 -3.80001 3.69998
                        CHANNELS 6 Xposition Yposition Zposition Zrotation Xrotation Yrotation
                        JOINT RightHandThumb3
                        {
                          OFFSET 0 -2.99998 2.70005
                          CHANNELS 6 Xposition Yposition Zposition Zrotation Xrotation Yrotation
                          End Site
                          {
                            OFFSET 0 -2.3 1.79998
                          }
                        }
                      }
                    }
                    JOINT RightHandIndex
                    {
                      OFFSET 0 -1.9 1.60003
                      CHANNELS 6 Xposition Yposition Zposition Zrotation Xrotation Yrotation
                      JOINT RightHandIndex1
                      {
                        OFFSET 1.01046e-05 -8.3 1.90001
                        CHANNELS 6 Xposition Yposition Zposition Zrotation Xrotation Yrotation
                        JOINT RightHandIndex2
                        {
                          OFFSET 1.36288e-05 -4.49999 1.92612e-05
                          CHANNELS 6 Xposition Yposition Zposition Zrotation Xrotation Yrotation
                          JOINT RightHandIndex3
                          {
                            OFFSET -3.65995e-05 -3.40001 -3.98136e-05
                            CHANNELS 6 Xposition Yposition Zposition Zrotation Xrotation Yrotation
                            End Site
                            {
                              OFFSET 0 -2.60001 3.5885e-05
                            }
                          }
                        }
                      }
                    }
                    JOINT RightHandMiddle
                    {
                      OFFSET 0.249999 -2.20001 0.400017
                      CHANNELS 6 Xposition Yposition Zposition Zrotation Xrotation Yrotation
                      JOINT RightHandMiddle1
                      {
                        OFFSET 0 -8.3 1.00001
                        CHANNELS 6 Xposition Yposition Zposition Zrotation Xrotation Yrotation
                        JOINT RightHandMiddle2
                        {
                          OFFSET 2.68663e-05 -4.64997 2.31853e-05
                          CHANNELS 6 Xposition Yposition Zposition Zrotation Xrotation Yrotation
                          JOINT RightHandMiddle3
                          {
                            OFFSET -2.39231e-05 -3.29999 0
                            CHANNELS 6 Xposition Yposition Zposition Zrotation Xrotation Yrotation
                            End Site
                            {
                              OFFSET 0 -2.7 -5.79353e-05
                            }
                          }
                        }
                      }
                    }
                    JOINT RightHandRing
                    {
                      OFFSET 0.499994 -2.15002 -0.799964
                      CHANNELS 6 Xposition Yposition Zposition Zrotation Xrotation Yrotation
                      JOINT RightHandRing1
                      {
                        OFFSET 0 -7.75 -0.20002
                        CHANNELS 6 Xposition Yposition Zposition Zrotation Xrotation Yrotation
                        JOINT RightHandRing2
                        {
                          OFFSET -1.18015e-05 -3.80001 0
                          CHANNELS 6 Xposition Yposition Zposition Zrotation Xrotation Yrotation
                          JOINT RightHandRing3
                          {
                            OFFSET 0 -3.40001 3.29062e-05
                            CHANNELS 6 Xposition Yposition Zposition Zrotation Xrotation Yrotation
                            End Site
                            {
                              OFFSET 4.51677e-05 -2.60004 -1.24422e-05
                            }
                          }
                        }
                      }
                    }
                    JOINT RightHandPinky
                    {
                      OFFSET 0.750005 -1.75001 -1.84995
                      CHANNELS 6 Xposition Yposition Zposition Zrotation Xrotation Yrotation
                      JOINT RightHandPinky1
                      {
                        OFFSET 0 -7.15001 -1.00002
                        CHANNELS 6 Xposition Yposition Zposition Zrotation Xrotation Yrotation
                        JOINT RightHandPinky2
                        {
                          OFFSET -3.37671e-05 -2.99999 1.81726e-05
                          CHANNELS 6 Xposition Yposition Zposition Zrotation Xrotation Yrotation
                          JOINT RightHandPinky3
                          {
                            OFFSET 7.87664e-05 -2.35002 -1.86802e-05
                            CHANNELS 6 Xposition Yposition Zposition Zrotation Xrotation Yrotation
                            End Site
                            {
                              OFFSET -3.74724e-05 -2.09996 0
                            }
                          }
                        }
                      }
                    }
                  }
                }
              }
            }
          }
        }
      }
    }
  }
  JOINT LeftUpLeg
  {
    OFFSET 8 0 2.35171e-05
    CHANNELS 6 Xposition Yposition Zposition Zrotation Xrotation Yrotation
    JOINT LeftLeg
    {
      OFFSET 1.4096e-05 -45 -1.00002
      CHANNELS 6 Xposition Yposition Zposition Zrotation Xrotation Yrotation
      JOINT LeftFoot
      {
        OFFSET 2.23029e-05 -41 -2.00003
        CHANNELS 6 Xposition Yposition Zposition Zrotation Xrotation Yrotation
        JOINT LeftToeBase
        {
          OFFSET 1.72507e-05 -7.5 12.5
          CHANNELS 6 Xposition Yposition Zposition Zrotation Xrotation Yrotation
          JOINT LeftFootToe
          {
            OFFSET 0 0 4
            CHANNELS 6 Xposition Yposition Zposition Zrotation Xrotation Yrotation
            End Site
            {
              OFFSET 0 0 0
            }
          }
        }
      }
    }
  }
  JOINT RightUpLeg
  {
    OFFSET -8 0 -2.35171e-05
    CHANNELS 6 Xposition Yposition Zposition Zrotation Xrotation Yrotation
    JOINT RightLeg
    {
      OFFSET 0 -45 -0.999956
      CHANNELS 6 Xposition Yposition Zposition Zrotation Xrotation Yrotation
      JOINT RightFoot
      {
        OFFSET -1.8736e-05 -41.0001 -1.99999
        CHANNELS 6 Xposition Yposition Zposition Zrotation Xrotation Yrotation
        JOINT RightToeBase
        {
          OFFSET 0 -7.5 12.5
          CHANNELS 6 Xposition Yposition Zposition Zrotation Xrotation Yrotation
          JOINT RightFootToe
          {
            OFFSET 0 0 4
            CHANNELS 6 Xposition Yposition Zposition Zrotation Xrotation Yrotation
            End Site
            {
              OFFSET 0 0 0
            }
          }
        }
      }
    }
  }
}
MOTION
Frames:	3
Frame Time:	0.0111111
346.28 92.2014 800.497 -0.52819 -0.998996 67.9442 0 8 0 -1.11008 1.44402 -1.17165 -1.13687e-13 8 0 1.11816 -0.712985 0.400514 1.13687e-13 8 0 0.558545 -0.364875 0.194783 0 8 0 0.558545 -0.364789 0.194767 0 17 1.13687e-13 -1.82089 2.28915 9.37752 0 10.8 0 -2.49915 -1.65486 21.7992 5 17 1.13687e-13 -21.284 -20.1315 17.6306 6.45 5.68434e-14 0 -2.78313 0.490372 -2.54119 6.45 0 0 7.26144 -27.1785 22.0396 0 -32.4 -2 -30.677 -67.3045 14.3212 0 -25.65 2 -5.03754 -11.1447 17.2682 -0.5 -1.5 2.65 -5.76999 2.85467 -5.22168 0 -3.8 3.7 -0.248397 17.4666 0.0297982 1.42109e-14 -3 2.7 -0.124885 24.317 0.0751864 2.4869e-14 -1.9 1.6 -7.95139e-16 3.18055e-15 5.96354e-16 -2.84217e-14 -8.3 1.9 -13.3587 -25.9368 -2.6148 -2.84217e-14 -4.5 -1.13687e-13 1.22836e-05 -0.0335181 0.0258307 2.84217e-14 -3.4 -1.13687e-13 4.40254e-06 -0.0330126 0.0255052 -0.25 -2.2 0.4 -7.95139e-16 3.18055e-15 5.96354e-16 -2.84217e-14 -8.3 1 -14.0848 -13.8137 -1.10633 -1.42109e-14 -4.65 0 8.54672e-06 0.00177512 -0.00356435 7.10543e-14 -3.3 -1.13687e-13 6.09204e-06 0.00200395 -0.000751606 -0.5 -2.15 -0.8 -7.95139e-16 3.18055e-15 5.96354e-16 4.61853e-14 -7.75 -0.2 -25.207 4.66163 2.18555 -2.84217e-14 -3.8 0 -2.52891e-05 -0.0261581 -0.00390945 2.84217e-14 -3.4 -1.13687e-13 -4.42337e-06 -0.0353543 -0.00379603 -0.75 -1.75 -1.85 -7.95139e-16 3.18055e-15 5.96354e-16 6.39488e-14 -7.15 -1 -31.5234 14.0503 5.56519 2.84217e-14 -3 1.13687e-13 -0.000125798 -0.178642 -0.0366176 2.84217e-14 -2.35 2.27374e-13 -7.29845e-05 -0.176722 -0.022696 -5 17 0 -15.8924 -4.81024 13.4449 -6.45 0 0 -1.29665 -3.04449 5.28591 -6.45 0 5.68434e-14 -53.3331 -79.9367 13.4345 2.84217e-14 -32.4 -2 43.1953 -56.6997 43.3335 0 -25.65 2 -31.771 -3.63722 21.4913 0.5 -1.5 2.65 2.36989 -28.6046 -3.75552 5.68434e-14 -3.8 3.7 0.267101 34.9282 -0.0952477 0 -3 2.7 0.0426023 25.4107 -0.00188255 5.68434e-14 -1.9 1.6 1.39149e-15 -6.36111e-15 3.97569e-15 -4.26326e-14 -8.3 1.9 18.8003 8.89184 -1.63527 5.68434e-14 -4.5 1.13687e-13 5.16263 -0.00365521 -0.00214079 -2.84217e-14 -3.4 0 4.81913 -0.00330075 0.00158507 0.25 -2.2 0.4 1.39149e-15 -6.36111e-15 3.97569e-15 0 -8.3 1 27.587 4.15698 -1.86468 5.68434e-14 -4.65 1.13687e-13 79.8949 -0.00728311 0.0133865 0 -3.3 1.13687e-13 65.7564 0.0154716 0.0213534 0.5 -2.15 -0.8 1.39149e-15 -6.36111e-15 3.97569e-15 -4.26326e-14 -7.75 -0.2 41.714 2.56929 -3.10575 0 -3.8 1.13687e-13 71.3954 0.0228499 -0.0713806 -1.13687e-13 -3.4 0 53.595 -0.0540316 -0.0741276 0.75 -1.75 -1.85 1.39149e-15 -6.36111e-15 3.97569e-15 -2.84217e-14 -7.15 -1 49.5627 -0.397449 -2.92754 1.13687e-13 -3 -1.13687e-13 68.7172 0.0272005 -0.182816 5.68434e-14 -2.35 1.13687e-13 50.7894 -0.144308 -0.15512 8 2.84217e-14 -1.13687e-13 -0.0204802 -8.68173 12.5919 0 -45 -1 -0.0555226 18.4838 0.434968 1.13687e-13 -41 -2 2.99612 -10.3748 -6.05442 0 -7.5 12.5 0 1.67831e-08 -0 -1.13687e-13 -1.38778e-17 4 -4.87271 -1.96862 6.3554 -8 -1.42109e-14 0 -5.76662 -0.354367 -7.96677 0 -45 -1 0.0110862 8.2517 -0.530963 0 -41 -2 6.89488 -6.94195 -6.0321 -5.68434e-14 -7.5 12.5 2.52363e-18 0.0454807 -0 0 0 4 -7.44648 5.81169 6.23305 
346.279 92.1949 800.476 -0.532182 -1.00903 67.9365 -1.13687e-13 8 0 -1.11301 1.43286 -1.17125 1.13687e-13 8 0 1.12433 -0.708083 0.398089 1.13687e-13 8 -1.13687e-13 0.561627 -0.364634 0.195145 -1.13687e-13 8 0 0.56164 -0.364532 0.195129 1.13687e-13 17 0 -1.83379 2.29121 9.3649 0 10.8 0 -2.47079 -1.58896 21.7714 5 17 -1.13687e-13 -21.2747 -20.1112 17.6821 6.45 0 5.68434e-14 -2.80524 0.466657 -2.54712 6.45 0 0 7.34076 -27.428 21.9067 -1.13687e-13 -32.4 -2 -30.269 -67.3413 14.6466 0 -25.65 2 -4.85161 -10.6824 17.6402 -0.5 -1.5 2.65 -6.13276 4.37936 -6.00808 0 -3.8 3.7 -0.303968 17.7175 0.0420473 -1.42109e-14 -3 2.7 -0.182892 21.5562 0.0704555 1.77636e-14 -1.9 1.6 -4.07509e-15 0 -7.95139e-16 -1.42109e-14 -8.3 1.9 -12.0609 -24.7789 -2.19688 0 -4.5 0 1.03216e-05 -0.0311431 0.0243269 -1.42109e-14 -3.4 0 2.60192e-06 -0.0306823 0.0240611 -0.25 -2.2 0.4 -4.07509e-15 0 -7.95139e-16 -2.84217e-14 -8.3 1 -13.8138 -12.6264 -0.896645 -2.84217e-14 -4.65 1.13687e-13 1.05095e-05 0.00247375 -0.003645 5.68434e-14 -3.3 0 4.99394e-06 0.00279612 -0.00099823 -0.5 -2.15 -0.8 -4.07509e-15 0 -7.95139e-16 3.19744e-14 -7.75 -0.2 -26.5746 5.08935 2.44468 -1.42109e-14 -3.8 -1.13687e-13 -2.43132e-05 -0.0262705 -0.00394487 5.68434e-14 -3.4 0 -4.40332e-06 -0.0354353 -0.00383013 -0.75 -1.75 -1.85 -4.07509e-15 0 -7.95139e-16 3.19744e-14 -7.15 -1 -33.5904 13.9038 5.93437 2.84217e-14 -3 0 -0.000122678 -0.177546 -0.0358795 0 -2.35 1.13687e-13 -7.12199e-05 -0.175638 -0.022258 -5 17 0 -15.9664 -4.93695 13.4742 -6.45 0 0 -1.27002 -3.0383 5.28728 -6.45 1.42109e-14 0 -52.0847 -79.8637 14.4833 2.84217e-14 -32.4 -2 42.8176 -56.2044 42.5256 2.84217e-14 -25.65 2 -31.79 -3.07575 20.2653 0.5 -1.5 2.65 2.23215 -28.5896 -4.08221 9.23706e-14 -3.8 3.7 0.241197 34.807 -0.0873445 -2.13163e-14 -3 2.7 0.0413252 25.8075 -0.00265725 5.68434e-14 -1.9 1.6 -9.93923e-16 0 -3.18055e-15 -4.26326e-14 -8.3 1.9 19.0386 9.25126 -1.7179 2.84217e-14 -4.5 -1.13687e-13 5.21103 -0.0128122 -0.00292635 -2.84217e-14 -3.4 0 4.86075 -0.0114783 0.00107319 0.25 -2.2 0.4 -9.93923e-16 0 -3.18055e-15 0 -8.3 1 28.53 4.31406 -1.98124 5.68434e-14 -4.65 0 79.951 -0.00436631 0.00688398 -2.27374e-13 -3.3 0 65.8509 0.00751415 0.0111799 0.5 -2.15 -0.8 -9.93923e-16 0 -3.18055e-15 -1.42109e-14 -7.75 -0.2 43.2757 2.55367 -3.2653 0 -3.8 -1.13687e-13 70.6319 0.0156101 -0.0558141 0 -3.4 1.13687e-13 52.6659 -0.0414045 -0.054693 0.75 -1.75 -1.85 -9.93923e-16 0 -3.18055e-15 -1.42109e-14 -7.15 -1 51.5735 -0.586138 -3.0476 5.68434e-14 -3 0 67.0294 0.0192604 -0.143189 1.13687e-13 -2.35 0 48.8951 -0.104869 -0.117194 8 2.84217e-14 0 -0.0197899 -8.71444 12.57 1.13687e-13 -45 -1 -0.0554194 18.5394 0.433502 1.13687e-13 -41 -2 3.01098 -10.3992 -6.02739 0 -7.5 12.5 0 1.66237e-08 -0 0 0 4 -4.88124 -1.96813 6.3556 -8 0 1.13687e-13 -5.77175 -0.391149 -7.93012 0 -45 -1 0.0116919 8.3165 -0.538683 -1.13687e-13 -41 -2 6.90521 -6.9712 -6.04959 0 -7.5 12.5 3.24421e-18 0.0444542 -3.18056e-15 0 0 4 -7.44113 5.85028 6.23176 
346.278 92.1881 800.456 -0.536012 -1.01816 67.9234 0 8 0 -1.11591 1.42342 -1.17157 1.13687e-13 8 0 1.13052 -0.703947 0.396316 -1.13687e-13 8 0 0.564685 -0.364414 0.195513 0 8 1.13687e-13 0.564683 -0.364299 0.195497 0 17 0 -1.84624 2.29521 9.35687 1.13687e-13 10.8 -1.13687e-13 -2.44461 -1.52186 21.7547 5 17 0 -21.2711 -20.0941 17.7284 6.45 0 0 -2.82752 0.443602 -2.55183 6.45 5.68434e-14 0 7.45327 -27.6728 21.815 0 -32.4 -2 -29.8455 -67.4099 14.9181 -5.68434e-14 -25.65 2 -4.08164 -10.2985 17.9664 -0.5 -1.5 2.65 -6.94814 6.64237 -6.84562 2.84217e-14 -3.8 3.7 -0.409087 17.5069 0.0624339 -1.42109e-14 -3 2.7 -0.25612 18.336 0.0861302 4.26326e-14 -1.9 1.6 1.73937e-15 0 -1.78906e-15 -1.42109e-14 -8.3 1.9 -10.4563 -23.2841 -1.69361 2.84217e-14 -4.5 0 8.46446e-06 -0.0287386 0.0228131 -2.84217e-14 -3.4 0 9.06199e-07 -0.02832 0.022613 -0.25 -2.2 0.4 1.73937e-15 0 -1.78906e-15 -6.39488e-14 -8.3 1 -13.4959 -11.1157 -0.628147 -1.42109e-14 -4.65 0 1.1904e-05 0.00316526 -0.00369978 4.26326e-14 -3.3 0 3.80384e-06 0.00354705 -0.00123612 -0.5 -2.15 -0.8 1.73937e-15 0 -1.78906e-15 3.55271e-14 -7.75 -0.2 -28.3854 5.58245 2.78162 0 -3.8 0 -2.33403e-05 -0.026384 -0.00398051 1.42109e-14 -3.4 0 -4.3839e-06 -0.0355175 -0.00386442 -0.75 -1.75 -1.85 1.73937e-15 0 -1.78906e-15 6.39488e-14 -7.15 -1 -36.2184 13.6521 6.37444 1.13687e-13 -3 1.13687e-13 -0.00011967 -0.176446 -0.0351693 0 -2.35 0 -6.94717e-05 -0.174553 -0.0218202 -5 17 0 -16.0386 -5.05802 13.4981 -6.45 0 0 -1.24368 -3.03096 5.28809 -6.45 5.68434e-14 0 -50.923 -79.7852 15.4169 0 -32.4 -2 42.4626 -55.8306 41.9471 -5.68434e-14 -25.65 2 -31.6652 -2.58847 19.2238 0.5 -1.5 2.65 2.07969 -28.6492 -4.24349 5.32907e-14 -3.8 3.7 0.216762 34.6189 -0.0800347 1.06581e-14 -3 2.7 0.0334755 26.0746 -0.00335707 7.10543e-14 -1.9 1.6 1.39149e-15 -3.18055e-15 -3.97569e-16 -3.55271e-14 -8.3 1.9 19.1238 9.5091 -1.77023 0 -4.5 1.13687e-13 5.35756 -0.0113474 -0.00231167 -2.84217e-14 -3.4 -1.13687e-13 4.98724 -0.0101814 0.000875903 0.25 -2.2 0.4 1.39149e-15 -3.18055e-15 -3.97569e-16 -7.10543e-15 -8.3 1 29.2539 4.45818 -2.08064 0 -4.65 0 79.9252 0.00106971 -0.00317211 -1.7053e-13 -3.3 0 65.8077 -0.00486915 -0.00299214 0.5 -2.15 -0.8 1.39149e-15 -3.18055e-15 -3.97569e-16 -1.42109e-14 -7.75 -0.2 44.5368 2.57383 -3.41271 0 -3.8 -1.13687e-13 69.7353 0.0111821 -0.0490189 5.68434e-14 -3.4 0 51.6459 -0.0358525 -0.0444511 0.75 -1.75 -1.85 1.39149e-15 -3.18055e-15 -3.97569e-16 -3.55271e-14 -7.15 -1 53.2872 -0.686023 -3.18155 5.68434e-14 -3 0 65.3141 0.00870052 -0.0935851 5.68434e-14 -2.35 0 47.0455 -0.0632459 -0.0700681 8 0 0 -0.0185508 -8.74706 12.5536 -1.13687e-13 -45 -1 -0.0553211 18.5961 0.432038 -1.13687e-13 -41 -2 3.02505 -10.4248 -6.00527 0 -7.5 12.5 1.553e-18 1.64644e-08 3.18055e-15 0 0 4 -4.89009 -1.96752 6.35584 -8 0 0 -5.77743 -0.432977 -7.88461 0 -45 -1 0.0124888 8.389 -0.546796 1.13687e-13 -41 -2 6.91435 -7.00436 -6.0748 0 -7.5 12.5 -5.51641e-18 0.0434218 3.18056e-15 0 -1.11022e-16 4 -7.43483 5.88875 6.23045 
